<svg width="117" height="64" viewBox="0 0 117 64" fill="none" xmlns="http://www.w3.org/2000/svg">
<g clipPath="url(#clip0_177_4111)">
<path d="M91.6968 3.86038C92.2936 1.90255 92.4625 -0.409237 88.2735 0.0663942C85.492 0.376107 84.8614 2.96442 84.67 5.39788C83.8705 9.65644 82.4291 20.6291 79.0846 30.3851C78.0937 33.2721 77.8797 36.4687 81.3593 37.6523C85.4695 39.1787 85.1317 33.8694 85.4695 31.7899C86.1677 27.5645 90.8635 31.8784 92.485 33.1393C95.4241 35.4401 99.0501 38.139 101.471 40.5503C103.07 42.1431 107.011 45.196 108.374 41.6343C109.804 37.8293 104.545 35.8272 102.034 34.2786C98.8924 32.354 95.6944 29.9869 93.1945 27.3101C91.8995 25.8832 91.404 25.7947 92.958 24.578C93.8476 23.8811 94.9174 23.2285 95.9196 22.598C98.0479 21.2375 103.07 18.8151 100.537 15.8175C98.3857 13.3066 95.9196 15.364 93.78 16.636C92.6202 17.3329 88.0933 20.7176 88.4874 17.8417C88.9266 14.811 90.4243 8.11894 91.6968 3.8825V3.86038Z" fill="white"/>
<path d="M48.1401 23.9698C48.5793 24.6445 53.1962 21.7133 54.4912 21.0828C58.2073 19.2356 60.7635 19.9103 62.5314 22.8637C63.8715 25.098 63.421 27.5093 63.2184 30.0534C63.0157 32.509 62.599 37.0773 61.1013 39.0462C59.3334 41.3469 55.1443 39.0793 55.1556 36.3915C55.1556 33.3828 57.6217 29.0026 56.6308 27.6089C55.2682 25.7064 51.3044 29.9207 50.4824 30.8941C48.6468 33.0952 47.8023 35.5066 47.3744 38.2829C47.0028 40.3956 47.0591 44.8201 42.3408 42.818C39.4467 41.5902 39.4918 38.8692 39.7958 36.2477C40.1674 33.0178 42.3183 15.4195 44.4578 8.00848C45.1109 5.72988 48.005 5.17682 49.4126 5.59715C50.7414 5.97323 51.631 6.64796 50.9891 9.08142C50.9891 9.08142 49.6828 13.1851 48.1288 23.9698H48.1401Z" fill="white"/>
<path d="M75.121 8.55009C75.3462 10.0765 75.0309 12.6317 72.4184 12.1228C70.763 11.4371 68.7361 10.3973 68.4996 8.45054C68.4433 6.32679 69.9297 4.92202 72.1481 5.58569C72.1481 5.58569 74.8394 6.74711 75.121 8.56115V8.55009Z" fill="white"/>
<path d="M73.1391 20.0541C75.4589 22.2553 73.4882 27.3656 73.1729 30.7724C73.004 32.686 73.6346 34.8429 72.3171 36.4026C71.0559 37.8626 69.2767 37.741 67.7339 36.6459C64.716 34.5 66.6078 27.8301 67.002 24.722C67.2385 22.8747 65.8984 20.0541 68.4096 19.302C71.6189 18.3507 73.1504 20.0541 73.1504 20.0541H73.1391Z" fill="white"/>
<path d="M35.6855 30.1971C36.5751 31.9779 36.2711 33.1725 35.0436 34.4667C32.0483 37.6081 28.7263 40.6499 25.5508 43.7249C24.4923 44.7646 16.9588 51.158 16.97 52.6955C16.9925 53.8569 20.7649 52.7398 22.2401 52.3194C25.1904 51.4898 39.6606 48.0498 42.5321 47.1428C44.7843 46.4349 47.7684 44.4328 49.7841 46.3796C52.4416 48.9458 51.3493 53.0273 47.1716 52.2973C44.5816 51.8549 41.2484 52.8061 38.2755 53.4587C36.744 53.8127 23.5013 56.9983 21.4068 57.5735C18.1975 58.4141 15.0444 59.2548 12.0265 60.549C9.01988 61.8321 3.46829 65.6592 1.22738 63.1815C-2.03826 59.5866 1.91429 57.5403 4.24528 55.9586C7.57849 53.7021 10.9342 50.1846 13.6706 47.2645C16.4408 44.289 22.0599 38.7916 22.0487 38.327C22.0374 36.7342 15.3935 39.6986 13.9071 40.1632C11.2383 41.037 5.2475 42.5524 4.7858 38.1832C4.54933 35.8383 7.56723 34.7653 9.48157 34.7322C11.9252 34.699 13.7044 34.0574 15.9453 33.4269C18.6366 32.6637 21.3167 31.8009 23.9743 30.9382C26.5305 30.1307 28.6475 29.3122 31.2938 28.4826C31.2938 28.4826 34.2892 27.465 35.6517 30.2192L35.6855 30.1971Z" fill="white"/>
<path d="M112.732 46.2798L112.619 43.1716L113.982 43.1274C114.32 43.1163 114.579 43.1274 114.736 43.1827C114.894 43.2269 115.018 43.3375 115.131 43.4703C115.221 43.6251 115.288 43.7689 115.277 43.957C115.299 44.1893 115.232 44.3884 115.097 44.5543C114.962 44.7091 114.748 44.8087 114.466 44.8529C114.624 44.9304 114.725 45.0189 114.827 45.1184C114.917 45.1958 115.052 45.3617 115.221 45.6162L115.626 46.1913L114.849 46.2245L114.354 45.5719C114.173 45.3175 114.061 45.1737 113.993 45.1184C113.926 45.0631 113.869 45.0189 113.791 44.9967C113.723 44.9857 113.622 44.9746 113.464 44.9857H113.329L113.385 46.2798L112.732 46.3019V46.2798ZM113.306 44.4547H113.791C114.106 44.4326 114.297 44.4105 114.376 44.3884C114.455 44.3552 114.5 44.322 114.556 44.2556C114.613 44.2003 114.613 44.1118 114.613 44.0233C114.613 43.9127 114.579 43.8464 114.522 43.7689C114.455 43.7136 114.376 43.6804 114.263 43.6694C114.207 43.6694 114.05 43.6694 113.791 43.6694H113.273L113.306 44.4547Z" fill="white"/>
<path d="M113.881 41.8222C112.282 41.8775 111.02 43.1716 111.077 44.7202C111.144 46.2798 112.473 47.4855 114.072 47.4302C115.682 47.3638 116.932 46.0586 116.876 44.5211C116.82 42.9615 115.48 41.7669 113.869 41.8222H113.881ZM114.061 46.9103C112.755 46.9545 111.662 45.9701 111.617 44.7091C111.572 43.4481 112.586 42.3863 113.892 42.331C115.209 42.2867 116.302 43.2822 116.347 44.5321C116.392 45.7931 115.356 46.855 114.061 46.8992V46.9103Z" fill="white"/>
</g>
<defs>
<clipPath id="clip0_177_4111">
<rect width="117" height="64" fill="white"/>
</clipPath>
</defs>
</svg>
